<?xml version="1.0" encoding="UTF-8"?>
<svg id="Layer_1" xmlns="http://www.w3.org/2000/svg" version="1.1" viewBox="0 0 845.2 528.7">
  <!-- Generator: Adobe Illustrator 29.0.1, SVG Export Plug-In . SVG Version: 2.1.0 Build 192)  -->
  <defs>
    <style>
      .st0 {
        fill: #f40009;
      }

      .st1 {
        fill: #1e1e1e;
      }
    </style>
  </defs>
  <g>
    <path class="st1" d="M252.2,173.9c7.7-19,18.5-35.8,32.3-50.1,13.7-14.5,30.1-25.8,48.9-34.2,18.9-8.3,39.3-12.5,61.2-12.5s42.3,4.2,61.2,12.5c18.9,8.3,35.2,19.7,48.9,34.2,13.7,14.4,24.5,31.2,32.3,50.1,7.9,18.9,11.7,39.2,11.7,60.7s-3.9,41.6-11.7,60.7c-7.9,19-18.5,35.6-32.3,50-13.7,14.1-30,25.5-48.8,33.8-18.9,8.3-39.3,12.5-61.2,12.5s-42.4-4.2-61.2-12.5c-18.9-8.3-35.2-19.7-48.9-34-13.7-14.3-24.5-31-32.3-50-7.9-19-11.6-39.2-11.6-60.7s3.8-41.5,11.5-60.4ZM289.5,279.6c5.6,14.3,13.6,26.9,23.7,37.9,10.2,11,22.1,19.6,36.1,26,13.8,6.4,29,9.6,45.4,9.6s31.5-3.2,45.4-9.6c13.8-6.4,25.9-15.1,36.1-26s18-23.6,23.7-37.9c5.6-14.3,8.5-29.3,8.5-45.2s-2.9-30.9-8.5-45.2c-5.6-14.3-13.6-27-23.7-38.1-10.2-11.1-22.1-19.9-36.1-26.5-13.8-6.5-29-9.7-45.4-9.7s-31.5,3.2-45.4,9.7c-13.8,6.5-25.9,15.4-36.1,26.5-10.2,11.1-18,23.8-23.7,38.1-5.8,14.3-8.5,29.3-8.5,45.2s2.9,30.9,8.5,45.2Z"/>
    <path class="st1" d="M628,81.1v269.5h153.3v36.6h-192.8V81.1h39.5Z"/>
  </g>
  <path class="st0" d="M152.2,113.2c-26.6,26.6-51.6,39.9-75.2,39.9s-31.4-6.2-46.1-18.6c-14.6-12.4-21.9-26.5-21.9-42.2s7.9-33.1,23.6-52.2c10.1-6.5,21.6-14.4,34.6-23.6,7.9-5.6,15.9-8.5,24.1-8.5s15.7,2.4,23.6,7.2v20.3c-14.4,13.9-23.4,23.4-26.8,28.1-2.2,3.1-3.3,6.8-3.3,11.1s.7,6.5,2,10.4c11.7,1.3,29.4,2.9,52.9,4.5,10.4,12.4,14.5,20.3,12.4,23.7ZM202.9,428.5c-15.7,20.5-26.3,30.9-32,31.3-5.6.4-16.2-.2-31.3-2-18.7-27.5-29.2-68-31.3-121.5-.4-29.2-1.5-72.7-3.3-130.7,8.3,0,14.6-.7,18.9-2,10.8,24.4,27.2,61.4,49,111.1,19.9,46.7,30,84.6,30,113.8Z"/>
  <g>
    <path class="st1" d="M252.9,485.6c1.9-3.4,4.4-6.1,7.6-8s6.9-2.9,10.7-2.9,7.3.9,10.2,2.5,5,3.8,6.4,6.3v-8.1h7.5v44.6h-7.5v-8.3c-1.4,2.7-3.7,4.8-6.5,6.4-2.9,1.8-6.3,2.5-10.2,2.5s-7.5-1-10.7-3c-3.2-2-5.8-4.6-7.5-8.2-1.9-3.5-2.8-7.5-2.8-12.1s1-8.5,2.8-12ZM285.9,488.9c-1.3-2.5-3.2-4.4-5.5-5.8s-4.9-2-7.6-2-5.3.7-7.5,2c-2.2,1.3-4.1,3.2-5.4,5.8-1.3,2.5-2,5.4-2,8.7s.7,6.4,2,8.9,3.2,4.4,5.4,5.8c2.3,1.3,4.8,2,7.5,2s5.3-.7,7.6-2c2.3-1.3,4.1-3.2,5.5-5.8,1.3-2.5,2-5.4,2-8.9,0-3.3-.7-6.2-2-8.7Z"/>
    <path class="st1" d="M340.8,476.8c2.8,1.4,4.9,3.5,6.4,6.4s2.3,6.4,2.3,10.5v26.2h-7.3v-25.2c0-4.4-1.1-7.9-3.3-10.2s-5.2-3.5-9.1-3.5-7,1.2-9.3,3.7c-2.3,2.4-3.4,6-3.4,10.6v24.7h-7.4v-60.2h7.4v21.9c1.4-2.2,3.4-4.1,6.1-5.3,2.5-1.2,5.5-1.9,8.6-1.9,3.2.2,6.2.9,9,2.3Z"/>
    <path class="st1" d="M403.7,500.5h-35.6c.3,4.4,1.8,7.9,4.5,10.3,2.8,2.4,6.1,3.7,10,3.7s5.9-.8,8-2.2,3.7-3.4,4.5-6h8c-1.2,4.3-3.5,7.7-7.2,10.4-3.5,2.7-8.1,4.1-13.4,4.1s-8-1-11.3-2.9c-3.3-1.9-6-4.5-7.9-8.1-1.9-3.5-2.9-7.5-2.9-12.2s.9-8.6,2.8-12.2c1.9-3.4,4.4-6.1,7.7-8s7.2-2.8,11.5-2.8,8,1,11.2,2.8c3.2,1.9,5.8,4.3,7.5,7.6,1.8,3.2,2.7,6.9,2.7,11,.1,1.3,0,2.9-.1,4.4ZM394.4,487.2c-1.2-2-3-3.5-5.1-4.6s-4.5-1.5-7.1-1.5c-3.8,0-7,1.2-9.5,3.5-2.7,2.4-4.2,5.8-4.5,10h28.1c0-2.9-.7-5.3-1.9-7.3Z"/>
    <path class="st1" d="M415.3,485.6c1.9-3.4,4.4-6.1,7.6-8s6.9-2.9,10.7-2.9,7.3.9,10.2,2.5,5,3.8,6.4,6.3v-8.1h7.5v44.6h-7.5v-8.3c-1.4,2.7-3.7,4.8-6.5,6.4-2.9,1.8-6.3,2.5-10.2,2.5s-7.5-1-10.7-3c-3.2-2-5.8-4.6-7.5-8.2-1.9-3.5-2.8-7.5-2.8-12.1s.9-8.5,2.8-12ZM448.3,488.9c-1.3-2.5-3.2-4.4-5.5-5.8s-4.9-2-7.6-2-5.3.7-7.5,2c-2.2,1.3-4.1,3.2-5.4,5.8-1.3,2.5-2,5.4-2,8.7s.7,6.4,2,8.9,3.2,4.4,5.4,5.8c2.3,1.3,4.8,2,7.5,2s5.3-.7,7.6-2c2.3-1.3,4.1-3.2,5.5-5.8,1.3-2.5,2-5.4,2-8.9s-.7-6.2-2-8.7Z"/>
    <path class="st1" d="M471.9,485.6c1.9-3.4,4.4-6.1,7.6-8s6.9-2.9,10.8-2.9,6.6.8,9.6,2.4,5.2,3.7,6.9,6.3v-23.6h7.5v60.2h-7.5v-8.4c-1.4,2.7-3.7,4.9-6.5,6.5-2.9,1.8-6.2,2.5-10.1,2.5s-7.5-1-10.7-3c-3.2-2-5.8-4.6-7.6-8.2-1.9-3.5-2.8-7.5-2.8-12.1s1-8.5,2.8-12ZM504.9,488.9c-1.3-2.5-3.2-4.4-5.5-5.8s-4.9-2-7.6-2-5.3.7-7.5,2c-2.2,1.3-4.1,3.2-5.4,5.8-1.3,2.5-2,5.4-2,8.7s.7,6.4,2,8.9c1.3,2.5,3.2,4.4,5.4,5.8,2.3,1.3,4.8,2,7.5,2s5.3-.7,7.6-2c2.3-1.3,4.1-3.2,5.5-5.8s2-5.4,2-8.9-.7-6.2-2-8.7Z"/>
    <path class="st1" d="M560,517.9c-3.4-1.9-6-4.5-8-8.1-1.9-3.5-2.9-7.5-2.9-12.2s1-8.6,3-12.1c2-3.5,4.6-6.2,8.1-8.1s7.3-2.8,11.5-2.8,8.1,1,11.4,2.8c3.4,1.9,6.1,4.5,8.1,8s3,7.5,3,12.2-1,8.6-3,12.2-4.8,6.2-8.3,8.1c-3.4,1.9-7.3,2.9-11.5,2.9-4.2,0-8.1-1-11.4-2.9ZM578.8,512.4c2.3-1.2,4.2-3.1,5.6-5.6s2.1-5.5,2.1-9.1-.7-6.6-2.1-9.1c-1.4-2.5-3.3-4.3-5.5-5.5s-4.8-1.9-7.4-1.9-5.2.7-7.4,1.9-4.1,3.1-5.4,5.5c-1.3,2.5-2,5.5-2,9.1s.7,6.6,2,9.2,3.1,4.3,5.3,5.5,4.6,1.9,7.3,1.9c2.7,0,5.2-.6,7.5-1.9Z"/>
    <path class="st1" d="M623.7,481.6h-9.4v38.4h-7.4v-38.4h-5.8v-6.1h5.8v-3.2c0-5,1.3-8.6,3.9-11s6.8-3.4,12.4-3.4v6.2c-3.2,0-5.5.7-6.9,1.9s-2,3.3-2,6.3v3.2h9.4v6.1Z"/>
    <path class="st1" d="M666.4,481.6v26.2c0,2.1.4,3.7,1.3,4.5.9.9,2.5,1.3,4.8,1.3h5.4v6.3h-6.6c-4.1,0-7.2-1-9.3-2.9s-3.1-5-3.1-9.4v-26.2h-5.8v-6.1h5.8v-11.2h7.4v11.2h11.6v6.1h-11.5Z"/>
    <path class="st1" d="M688.8,466.8c-1-1-1.4-2.2-1.4-3.5s.4-2.7,1.4-3.5c1-1,2.1-1.4,3.5-1.4s2.5.4,3.4,1.4c1,1,1.4,2.2,1.4,3.5s-.4,2.7-1.4,3.5c-1,1-2.1,1.4-3.4,1.4-1.3,0-2.5-.4-3.5-1.4ZM695.9,475.5v44.6h-7.4v-44.6h7.4Z"/>
    <path class="st1" d="M773,476.8c2.7,1.4,4.9,3.5,6.4,6.4s2.3,6.4,2.3,10.5v26.2h-7.3v-25.2c0-4.4-1.1-7.9-3.3-10.2s-5.2-3.5-8.9-3.5-6.9,1.2-9.2,3.7c-2.3,2.4-3.4,6.1-3.4,10.7v24.6h-7.3v-25.2c0-4.4-1.1-7.9-3.3-10.2s-5.2-3.5-9-3.5-6.9,1.2-9.2,3.7c-2.2,2.4-3.4,6.1-3.4,10.7v24.6h-7.4v-44.6h7.4v6.4c1.4-2.3,3.4-4.1,5.9-5.3,2.4-1.2,5.2-1.9,8.2-1.9s7.1.9,10,2.5,5,4.2,6.4,7.4c1.2-3.1,3.3-5.5,6.2-7.3s6.1-2.5,9.6-2.5c3.5,0,6.6.7,9.3,2.1Z"/>
    <path class="st1" d="M836,500.5h-35.6c.3,4.4,1.8,7.9,4.5,10.3,2.8,2.4,6.1,3.7,10,3.7s5.9-.8,8-2.2,3.7-3.4,4.5-6h8c-1.2,4.3-3.5,7.7-7.2,10.4-3.5,2.7-8.1,4.1-13.4,4.1s-8-1-11.3-2.9c-3.3-1.9-6-4.5-7.9-8.1-1.9-3.5-2.9-7.5-2.9-12.2s.9-8.6,2.8-12.2,4.4-6.1,7.7-8,7.2-2.8,11.5-2.8,8,1,11.2,2.8c3.2,1.9,5.8,4.3,7.5,7.6,1.8,3.2,2.7,6.9,2.7,11,.1,1.3,0,2.9-.1,4.4ZM826.7,487.2c-1.2-2-3-3.5-5.1-4.6-2.1-1.1-4.5-1.5-7.1-1.5-3.8,0-7,1.2-9.5,3.5-2.7,2.4-4.2,5.8-4.5,10h28.1c0-2.9-.7-5.3-1.9-7.3Z"/>
  </g>
  <g>
    <path class="st1" d="M813.3,364.7v2.2h-6.1v16.1h-2.3v-16.1h-6.1v-2.2h14.5Z"/>
    <path class="st1" d="M831.8,383v-13.6l-7.1,11.1h-.6l-7.1-11.1v13.6h-2.3v-18.3h2.1l7.6,12,7.6-12h2.1v18.3h-2.4Z"/>
  </g>
</svg>